<mxfile host="Electron" agent="Mozilla/5.0 (Windows NT 10.0; Win64; x64) AppleWebKit/537.36 (KHTML, like Gecko) draw.io/28.0.4 Chrome/138.0.7204.97 Electron/37.2.1 Safari/537.36" version="28.0.4">
  <diagram name="Page-1" id="jbJS7LYxs2nJONLgUeLP">
    <mxGraphModel dx="2008" dy="1796" grid="1" gridSize="10" guides="1" tooltips="1" connect="1" arrows="1" fold="1" page="1" pageScale="1" pageWidth="850" pageHeight="1100" math="0" shadow="0">
      <root>
        <mxCell id="0" />
        <mxCell id="1" parent="0" />
        <mxCell id="dNzHhPzTcEyxQCaCqJUd-50" style="edgeStyle=orthogonalEdgeStyle;rounded=0;orthogonalLoop=1;jettySize=auto;html=1;" edge="1" parent="1" source="dNzHhPzTcEyxQCaCqJUd-1" target="dNzHhPzTcEyxQCaCqJUd-2">
          <mxGeometry relative="1" as="geometry" />
        </mxCell>
        <mxCell id="dNzHhPzTcEyxQCaCqJUd-1" value="Start" style="ellipse;whiteSpace=wrap;html=1;" vertex="1" parent="1">
          <mxGeometry x="405" y="-180" width="120" height="80" as="geometry" />
        </mxCell>
        <mxCell id="dNzHhPzTcEyxQCaCqJUd-2" value="Declarations&lt;div&gt;&lt;div&gt;num areaCode&lt;/div&gt;&lt;div&gt;&lt;span style=&quot;background-color: transparent; color: light-dark(rgb(0, 0, 0), rgb(255, 255, 255));&quot;&gt;num phoneNumber&lt;/span&gt;&lt;/div&gt;&lt;div&gt;&lt;span style=&quot;background-color: transparent; color: light-dark(rgb(0, 0, 0), rgb(255, 255, 255));&quot;&gt;num&lt;/span&gt;&lt;span style=&quot;background-color: transparent; color: light-dark(rgb(0, 0, 0), rgb(255, 255, 255));&quot;&gt;&amp;nbsp;numberOfMessagesSent&lt;/span&gt;&lt;/div&gt;&lt;div&gt;num basicRate&lt;/div&gt;&lt;/div&gt;" style="rounded=0;whiteSpace=wrap;html=1;" vertex="1" parent="1">
          <mxGeometry x="365" y="-20" width="200" height="110" as="geometry" />
        </mxCell>
        <mxCell id="dNzHhPzTcEyxQCaCqJUd-4" value="input numberOfMessagesSent" style="shape=parallelogram;perimeter=parallelogramPerimeter;whiteSpace=wrap;html=1;fixedSize=1;" vertex="1" parent="1">
          <mxGeometry x="340" y="310" width="210" height="60" as="geometry" />
        </mxCell>
        <mxCell id="dNzHhPzTcEyxQCaCqJUd-43" style="edgeStyle=orthogonalEdgeStyle;rounded=0;orthogonalLoop=1;jettySize=auto;html=1;entryX=0.5;entryY=0;entryDx=0;entryDy=0;" edge="1" parent="1" source="dNzHhPzTcEyxQCaCqJUd-5" target="dNzHhPzTcEyxQCaCqJUd-8">
          <mxGeometry relative="1" as="geometry" />
        </mxCell>
        <mxCell id="dNzHhPzTcEyxQCaCqJUd-5" value="basicRate = 5" style="rounded=0;whiteSpace=wrap;html=1;" vertex="1" parent="1">
          <mxGeometry x="382.5" y="400" width="120" height="60" as="geometry" />
        </mxCell>
        <mxCell id="dNzHhPzTcEyxQCaCqJUd-8" value="&lt;span style=&quot;color: light-dark(rgb(0, 0, 0), rgb(255, 255, 255)); background-color: transparent;&quot;&gt;&amp;nbsp;numberOfMessagesSent&amp;nbsp; &amp;lt; 101&lt;/span&gt;&lt;div&gt;&lt;span style=&quot;color: light-dark(rgb(0, 0, 0), rgb(255, 255, 255)); background-color: transparent;&quot;&gt;&lt;br&gt;&lt;/span&gt;&lt;/div&gt;" style="rhombus;whiteSpace=wrap;html=1;" vertex="1" parent="1">
          <mxGeometry x="310" y="500" width="220" height="210" as="geometry" />
        </mxCell>
        <mxCell id="dNzHhPzTcEyxQCaCqJUd-10" style="edgeStyle=orthogonalEdgeStyle;rounded=0;orthogonalLoop=1;jettySize=auto;html=1;entryX=0.52;entryY=0.105;entryDx=0;entryDy=0;entryPerimeter=0;exitX=0;exitY=0.5;exitDx=0;exitDy=0;" edge="1" parent="1" source="dNzHhPzTcEyxQCaCqJUd-8">
          <mxGeometry relative="1" as="geometry">
            <mxPoint x="254" y="729.9000000000001" as="targetPoint" />
          </mxGeometry>
        </mxCell>
        <mxCell id="dNzHhPzTcEyxQCaCqJUd-11" value="no" style="edgeLabel;html=1;align=center;verticalAlign=middle;resizable=0;points=[];" vertex="1" connectable="0" parent="dNzHhPzTcEyxQCaCqJUd-10">
          <mxGeometry x="-0.7195" y="-1" relative="1" as="geometry">
            <mxPoint as="offset" />
          </mxGeometry>
        </mxCell>
        <mxCell id="dNzHhPzTcEyxQCaCqJUd-32" style="edgeStyle=orthogonalEdgeStyle;rounded=0;orthogonalLoop=1;jettySize=auto;html=1;" edge="1" parent="1" source="dNzHhPzTcEyxQCaCqJUd-12" target="dNzHhPzTcEyxQCaCqJUd-22">
          <mxGeometry relative="1" as="geometry" />
        </mxCell>
        <mxCell id="dNzHhPzTcEyxQCaCqJUd-12" value="&lt;span style=&quot;color: light-dark(rgb(0, 0, 0), rgb(255, 255, 255)); background-color: transparent;&quot;&gt;&amp;nbsp;numberOfMessagesSent &amp;gt; 100 and &amp;lt; 301 = messagesOverLimitThreeCentSurcharge&amp;nbsp;&lt;/span&gt;&lt;div&gt;&lt;span style=&quot;color: light-dark(rgb(0, 0, 0), rgb(255, 255, 255)); background-color: transparent;&quot;&gt;&lt;br&gt;&lt;/span&gt;&lt;/div&gt;" style="rounded=0;whiteSpace=wrap;html=1;" vertex="1" parent="1">
          <mxGeometry x="-100" y="730" width="580" height="140" as="geometry" />
        </mxCell>
        <mxCell id="dNzHhPzTcEyxQCaCqJUd-18" style="edgeStyle=orthogonalEdgeStyle;rounded=0;orthogonalLoop=1;jettySize=auto;html=1;entryX=0.5;entryY=0;entryDx=0;entryDy=0;exitX=0;exitY=0.5;exitDx=0;exitDy=0;" edge="1" parent="1" source="dNzHhPzTcEyxQCaCqJUd-14" target="dNzHhPzTcEyxQCaCqJUd-17">
          <mxGeometry relative="1" as="geometry" />
        </mxCell>
        <mxCell id="dNzHhPzTcEyxQCaCqJUd-19" value="no" style="edgeLabel;html=1;align=center;verticalAlign=middle;resizable=0;points=[];" vertex="1" connectable="0" parent="dNzHhPzTcEyxQCaCqJUd-18">
          <mxGeometry x="-0.7642" y="2" relative="1" as="geometry">
            <mxPoint as="offset" />
          </mxGeometry>
        </mxCell>
        <mxCell id="dNzHhPzTcEyxQCaCqJUd-37" style="edgeStyle=orthogonalEdgeStyle;rounded=0;orthogonalLoop=1;jettySize=auto;html=1;entryX=0.697;entryY=0.01;entryDx=0;entryDy=0;entryPerimeter=0;exitX=0.975;exitY=0.497;exitDx=0;exitDy=0;exitPerimeter=0;" edge="1" parent="1">
          <mxGeometry relative="1" as="geometry">
            <mxPoint x="579.4300000000002" y="1710" as="targetPoint" />
            <mxPoint x="373.405" y="1524.13" as="sourcePoint" />
          </mxGeometry>
        </mxCell>
        <mxCell id="dNzHhPzTcEyxQCaCqJUd-14" value="&lt;span style=&quot;color: light-dark(rgb(0, 0, 0), rgb(255, 255, 255)); background-color: transparent;&quot;&gt;&amp;nbsp;numberOfMessagesSent &amp;lt;&amp;nbsp; 301&lt;/span&gt;&lt;div&gt;&lt;span style=&quot;color: light-dark(rgb(0, 0, 0), rgb(255, 255, 255)); background-color: transparent;&quot;&gt;&lt;br&gt;&lt;/span&gt;&lt;/div&gt;" style="rhombus;whiteSpace=wrap;html=1;" vertex="1" parent="1">
          <mxGeometry x="62.5" y="1380" width="315" height="290" as="geometry" />
        </mxCell>
        <mxCell id="dNzHhPzTcEyxQCaCqJUd-34" style="edgeStyle=orthogonalEdgeStyle;rounded=0;orthogonalLoop=1;jettySize=auto;html=1;" edge="1" parent="1" source="dNzHhPzTcEyxQCaCqJUd-17" target="dNzHhPzTcEyxQCaCqJUd-23">
          <mxGeometry relative="1" as="geometry" />
        </mxCell>
        <mxCell id="dNzHhPzTcEyxQCaCqJUd-17" value="numberOfMessegesSent &amp;gt; 300 = numberOfMessagesTwoCentSurcharge" style="rounded=0;whiteSpace=wrap;html=1;" vertex="1" parent="1">
          <mxGeometry x="-180" y="1780" width="440" height="330" as="geometry" />
        </mxCell>
        <mxCell id="dNzHhPzTcEyxQCaCqJUd-20" value="input areaCode" style="shape=parallelogram;perimeter=parallelogramPerimeter;whiteSpace=wrap;html=1;fixedSize=1;" vertex="1" parent="1">
          <mxGeometry x="403.78" y="120" width="120" height="60" as="geometry" />
        </mxCell>
        <mxCell id="dNzHhPzTcEyxQCaCqJUd-48" style="edgeStyle=orthogonalEdgeStyle;rounded=0;orthogonalLoop=1;jettySize=auto;html=1;" edge="1" parent="1" source="dNzHhPzTcEyxQCaCqJUd-21" target="dNzHhPzTcEyxQCaCqJUd-4">
          <mxGeometry relative="1" as="geometry" />
        </mxCell>
        <mxCell id="dNzHhPzTcEyxQCaCqJUd-21" value="input phoneNumber" style="shape=parallelogram;perimeter=parallelogramPerimeter;whiteSpace=wrap;html=1;fixedSize=1;" vertex="1" parent="1">
          <mxGeometry x="375" y="220" width="140" height="60" as="geometry" />
        </mxCell>
        <mxCell id="dNzHhPzTcEyxQCaCqJUd-22" value="messagesOverLimitThreeCentSurcharge * 0.03 = aboveOneHundredMessagesSurcharge" style="rounded=0;whiteSpace=wrap;html=1;" vertex="1" parent="1">
          <mxGeometry x="-50" y="930" width="510" height="330" as="geometry" />
        </mxCell>
        <mxCell id="dNzHhPzTcEyxQCaCqJUd-30" style="edgeStyle=orthogonalEdgeStyle;rounded=0;orthogonalLoop=1;jettySize=auto;html=1;" edge="1" parent="1" source="dNzHhPzTcEyxQCaCqJUd-23" target="dNzHhPzTcEyxQCaCqJUd-28">
          <mxGeometry relative="1" as="geometry" />
        </mxCell>
        <mxCell id="dNzHhPzTcEyxQCaCqJUd-23" value="&amp;nbsp;numberOfMessagesTwoCentSurcharge * 0.02 = aboveThreeHundredMessagesSurcharge" style="rounded=0;whiteSpace=wrap;html=1;" vertex="1" parent="1">
          <mxGeometry x="-247.5" y="2260" width="575" height="400" as="geometry" />
        </mxCell>
        <mxCell id="dNzHhPzTcEyxQCaCqJUd-27" value="&lt;div&gt;&lt;div&gt;diplay areaCode&lt;/div&gt;&lt;/div&gt;&lt;div&gt;&lt;span style=&quot;background-color: transparent; color: light-dark(rgb(0, 0, 0), rgb(255, 255, 255));&quot;&gt;display phoneNumber&lt;/span&gt;&lt;/div&gt;&lt;div&gt;&lt;span style=&quot;background-color: transparent; color: light-dark(rgb(0, 0, 0), rgb(255, 255, 255));&quot;&gt;display monthEndBill&lt;/span&gt;&lt;/div&gt;" style="rounded=0;whiteSpace=wrap;html=1;" vertex="1" parent="1">
          <mxGeometry x="-100" y="3230" width="330" height="200" as="geometry" />
        </mxCell>
        <mxCell id="dNzHhPzTcEyxQCaCqJUd-31" style="edgeStyle=orthogonalEdgeStyle;rounded=0;orthogonalLoop=1;jettySize=auto;html=1;" edge="1" parent="1" source="dNzHhPzTcEyxQCaCqJUd-28" target="dNzHhPzTcEyxQCaCqJUd-27">
          <mxGeometry relative="1" as="geometry" />
        </mxCell>
        <mxCell id="dNzHhPzTcEyxQCaCqJUd-28" value="basicRate + aboveThreeHundredMessagesSurcharge + aboveOneHundredMessagesSurcharge = monthEndBill" style="rounded=0;whiteSpace=wrap;html=1;" vertex="1" parent="1">
          <mxGeometry x="-260" y="2830" width="600" height="290" as="geometry" />
        </mxCell>
        <mxCell id="dNzHhPzTcEyxQCaCqJUd-29" value="yes" style="text;html=1;align=center;verticalAlign=middle;resizable=0;points=[];autosize=1;strokeColor=none;fillColor=none;" vertex="1" parent="1">
          <mxGeometry x="403.78" y="1526.6" width="40" height="30" as="geometry" />
        </mxCell>
        <mxCell id="dNzHhPzTcEyxQCaCqJUd-33" style="edgeStyle=orthogonalEdgeStyle;rounded=0;orthogonalLoop=1;jettySize=auto;html=1;entryX=0.481;entryY=0.026;entryDx=0;entryDy=0;entryPerimeter=0;" edge="1" parent="1" source="dNzHhPzTcEyxQCaCqJUd-22" target="dNzHhPzTcEyxQCaCqJUd-14">
          <mxGeometry relative="1" as="geometry" />
        </mxCell>
        <mxCell id="dNzHhPzTcEyxQCaCqJUd-35" value="&lt;div&gt;diplay areaCode&lt;/div&gt;display phoneNumber&lt;div&gt;display monthEndBill&lt;span style=&quot;background-color: transparent; color: light-dark(rgb(0, 0, 0), rgb(255, 255, 255));&quot;&gt;&amp;nbsp;&lt;/span&gt;&lt;/div&gt;" style="rounded=0;whiteSpace=wrap;html=1;" vertex="1" parent="1">
          <mxGeometry x="390" y="2190" width="340" height="300" as="geometry" />
        </mxCell>
        <mxCell id="dNzHhPzTcEyxQCaCqJUd-41" style="edgeStyle=orthogonalEdgeStyle;rounded=0;orthogonalLoop=1;jettySize=auto;html=1;" edge="1" parent="1" source="dNzHhPzTcEyxQCaCqJUd-36" target="dNzHhPzTcEyxQCaCqJUd-35">
          <mxGeometry relative="1" as="geometry" />
        </mxCell>
        <mxCell id="dNzHhPzTcEyxQCaCqJUd-36" value="basicRate +&amp;nbsp;aboveOneHundredMessagesSurcharge = monthEndBill&lt;span style=&quot;color: light-dark(rgb(0, 0, 0), rgb(255, 255, 255)); background-color: transparent;&quot;&gt;&amp;nbsp;&lt;/span&gt;" style="rounded=0;whiteSpace=wrap;html=1;" vertex="1" parent="1">
          <mxGeometry x="390" y="1710" width="400" height="340" as="geometry" />
        </mxCell>
        <mxCell id="dNzHhPzTcEyxQCaCqJUd-42" value="&lt;div&gt;&lt;div&gt;diplay areaCode&lt;/div&gt;&lt;/div&gt;&lt;div&gt;&lt;span style=&quot;background-color: transparent; color: light-dark(rgb(0, 0, 0), rgb(255, 255, 255));&quot;&gt;display phoneNumber&lt;/span&gt;&lt;/div&gt;&lt;div&gt;&lt;span style=&quot;background-color: transparent; color: light-dark(rgb(0, 0, 0), rgb(255, 255, 255));&quot;&gt;display&amp;nbsp;&lt;/span&gt;&lt;span style=&quot;background-color: transparent; color: light-dark(rgb(0, 0, 0), rgb(255, 255, 255));&quot;&gt;monthEndBill&lt;/span&gt;&lt;span style=&quot;background-color: transparent; color: light-dark(rgb(0, 0, 0), rgb(255, 255, 255));&quot;&gt;&amp;nbsp;&lt;/span&gt;&lt;/div&gt;" style="rounded=0;whiteSpace=wrap;html=1;" vertex="1" parent="1">
          <mxGeometry x="740" y="2840" width="280" height="190" as="geometry" />
        </mxCell>
        <mxCell id="dNzHhPzTcEyxQCaCqJUd-54" value="" style="endArrow=none;html=1;rounded=0;exitX=1;exitY=0.45;exitDx=0;exitDy=0;exitPerimeter=0;" edge="1" parent="1" source="dNzHhPzTcEyxQCaCqJUd-27">
          <mxGeometry width="50" height="50" relative="1" as="geometry">
            <mxPoint x="510" y="3650" as="sourcePoint" />
            <mxPoint x="880" y="3320" as="targetPoint" />
            <Array as="points">
              <mxPoint x="510" y="3320" />
            </Array>
          </mxGeometry>
        </mxCell>
        <mxCell id="dNzHhPzTcEyxQCaCqJUd-55" value="" style="endArrow=none;html=1;rounded=0;entryX=0.528;entryY=1.005;entryDx=0;entryDy=0;entryPerimeter=0;" edge="1" parent="1" target="dNzHhPzTcEyxQCaCqJUd-42">
          <mxGeometry width="50" height="50" relative="1" as="geometry">
            <mxPoint x="880" y="3320" as="sourcePoint" />
            <mxPoint x="640" y="3230" as="targetPoint" />
          </mxGeometry>
        </mxCell>
        <mxCell id="dNzHhPzTcEyxQCaCqJUd-56" value="" style="endArrow=none;html=1;rounded=0;entryX=0.5;entryY=1;entryDx=0;entryDy=0;" edge="1" parent="1" target="dNzHhPzTcEyxQCaCqJUd-35">
          <mxGeometry width="50" height="50" relative="1" as="geometry">
            <mxPoint x="560" y="3320.6954823369565" as="sourcePoint" />
            <mxPoint x="600" y="2540" as="targetPoint" />
          </mxGeometry>
        </mxCell>
        <mxCell id="dNzHhPzTcEyxQCaCqJUd-58" value="stop" style="ellipse;whiteSpace=wrap;html=1;" vertex="1" parent="1">
          <mxGeometry x="490" y="3840" width="120" height="70" as="geometry" />
        </mxCell>
        <mxCell id="dNzHhPzTcEyxQCaCqJUd-59" style="edgeStyle=orthogonalEdgeStyle;rounded=0;orthogonalLoop=1;jettySize=auto;html=1;entryX=0.537;entryY=0.011;entryDx=0;entryDy=0;entryPerimeter=0;" edge="1" parent="1" source="dNzHhPzTcEyxQCaCqJUd-4" target="dNzHhPzTcEyxQCaCqJUd-5">
          <mxGeometry relative="1" as="geometry" />
        </mxCell>
        <mxCell id="dNzHhPzTcEyxQCaCqJUd-60" style="edgeStyle=orthogonalEdgeStyle;rounded=0;orthogonalLoop=1;jettySize=auto;html=1;entryX=0.56;entryY=-0.011;entryDx=0;entryDy=0;entryPerimeter=0;" edge="1" parent="1" source="dNzHhPzTcEyxQCaCqJUd-2" target="dNzHhPzTcEyxQCaCqJUd-20">
          <mxGeometry relative="1" as="geometry" />
        </mxCell>
        <mxCell id="dNzHhPzTcEyxQCaCqJUd-61" style="edgeStyle=orthogonalEdgeStyle;rounded=0;orthogonalLoop=1;jettySize=auto;html=1;entryX=0.644;entryY=-0.026;entryDx=0;entryDy=0;entryPerimeter=0;" edge="1" parent="1" source="dNzHhPzTcEyxQCaCqJUd-20" target="dNzHhPzTcEyxQCaCqJUd-21">
          <mxGeometry relative="1" as="geometry" />
        </mxCell>
        <mxCell id="dNzHhPzTcEyxQCaCqJUd-64" value="monthEndBill = basicRate" style="rounded=0;whiteSpace=wrap;html=1;" vertex="1" parent="1">
          <mxGeometry x="800" y="2580" width="190" height="100" as="geometry" />
        </mxCell>
        <mxCell id="dNzHhPzTcEyxQCaCqJUd-65" style="edgeStyle=orthogonalEdgeStyle;rounded=0;orthogonalLoop=1;jettySize=auto;html=1;entryX=0.43;entryY=-0.014;entryDx=0;entryDy=0;entryPerimeter=0;" edge="1" parent="1" source="dNzHhPzTcEyxQCaCqJUd-64" target="dNzHhPzTcEyxQCaCqJUd-42">
          <mxGeometry relative="1" as="geometry">
            <Array as="points">
              <mxPoint x="850" y="2760" />
              <mxPoint x="860" y="2760" />
            </Array>
          </mxGeometry>
        </mxCell>
        <mxCell id="dNzHhPzTcEyxQCaCqJUd-68" style="edgeStyle=orthogonalEdgeStyle;rounded=0;orthogonalLoop=1;jettySize=auto;html=1;entryX=0.5;entryY=0;entryDx=0;entryDy=0;" edge="1" parent="1" source="dNzHhPzTcEyxQCaCqJUd-73" target="dNzHhPzTcEyxQCaCqJUd-58">
          <mxGeometry relative="1" as="geometry">
            <mxPoint x="550" y="3790" as="targetPoint" />
          </mxGeometry>
        </mxCell>
        <mxCell id="dNzHhPzTcEyxQCaCqJUd-66" value="monthEndBill * 1.14 = finalBillAfterTaxes" style="rounded=0;whiteSpace=wrap;html=1;" vertex="1" parent="1">
          <mxGeometry x="416.89" y="3470" width="266.22" height="110" as="geometry" />
        </mxCell>
        <mxCell id="dNzHhPzTcEyxQCaCqJUd-67" value="" style="endArrow=classic;html=1;rounded=0;entryX=0.533;entryY=-0.027;entryDx=0;entryDy=0;entryPerimeter=0;" edge="1" parent="1" target="dNzHhPzTcEyxQCaCqJUd-66">
          <mxGeometry width="50" height="50" relative="1" as="geometry">
            <mxPoint x="560" y="3320" as="sourcePoint" />
            <mxPoint x="610" y="3520" as="targetPoint" />
          </mxGeometry>
        </mxCell>
        <mxCell id="dNzHhPzTcEyxQCaCqJUd-71" style="edgeStyle=orthogonalEdgeStyle;rounded=0;orthogonalLoop=1;jettySize=auto;html=1;entryX=0.5;entryY=0;entryDx=0;entryDy=0;" edge="1" parent="1" source="dNzHhPzTcEyxQCaCqJUd-8" target="dNzHhPzTcEyxQCaCqJUd-64">
          <mxGeometry relative="1" as="geometry" />
        </mxCell>
        <mxCell id="dNzHhPzTcEyxQCaCqJUd-72" value="yes" style="edgeLabel;html=1;align=center;verticalAlign=middle;resizable=0;points=[];" vertex="1" connectable="0" parent="dNzHhPzTcEyxQCaCqJUd-71">
          <mxGeometry x="-0.9723" y="-6" relative="1" as="geometry">
            <mxPoint as="offset" />
          </mxGeometry>
        </mxCell>
        <mxCell id="dNzHhPzTcEyxQCaCqJUd-74" value="" style="edgeStyle=orthogonalEdgeStyle;rounded=0;orthogonalLoop=1;jettySize=auto;html=1;entryX=0.5;entryY=0;entryDx=0;entryDy=0;" edge="1" parent="1" source="dNzHhPzTcEyxQCaCqJUd-66" target="dNzHhPzTcEyxQCaCqJUd-73">
          <mxGeometry relative="1" as="geometry">
            <mxPoint x="550" y="3840" as="targetPoint" />
            <mxPoint x="550" y="3580" as="sourcePoint" />
          </mxGeometry>
        </mxCell>
        <mxCell id="dNzHhPzTcEyxQCaCqJUd-73" value="display finalBillAfterTaxes" style="rounded=0;whiteSpace=wrap;html=1;" vertex="1" parent="1">
          <mxGeometry x="480" y="3670" width="140" height="100" as="geometry" />
        </mxCell>
      </root>
    </mxGraphModel>
  </diagram>
</mxfile>
